<svg xmlns="http://www.w3.org/2000/svg" viewBox="0 0 512 512"><path d="M413.091 439.273h-62.182l4.364-52.364h-30.545l-4.364 52.364H191.636l-4.364-52.364h-30.545l4.364 52.364H98.909L64 212.364l87.273-139.636h209.455L448 212.364l-34.909 226.909zm-69.818-296.728h-56.104l3.741 26.182h-69.818l3.741-26.182h-56.104l-34.909 69.818L151.273 352h209.455l17.455-139.636-34.91-69.819zm-30.546 163.113c-4.82 0-8.727-14.535-8.727-32.465 0-17.93 3.908-32.465 8.727-32.465 4.82 0 8.727 14.535 8.727 32.465.001 17.93-3.907 32.465-8.727 32.465zm-110.182 2.706c-4.82 0-8.727-14.535-8.727-32.465 0-17.93 3.908-32.465 8.727-32.465s8.727 14.535 8.727 32.465c.001 17.929-3.907 32.465-8.727 32.465z"/></svg>
